# xmcd
#
# Track frame offsets:
#	183
#	15363
#	28658
#	40885
#	53173
#	66773
#	79353
#	93148
#	106078
#	120660
#	134163
#	149688
#
# Disc length: 2146 seconds
#
# Revision: 0
# Processed by: cddbd v1.4PL0 Copyright (c) Steve Scherf et al.
# Submitted via: audiograbber 1.81.02
#
DISCID=a208600c
DTITLE=Various Artist - The Blues - The Millenium Anthology
DYEAR=1994
DGENRE=Blues
TTITLE0=Frankie-John Hurt
TTITLE1=Stack O'Lee Blues-John Hurt
TTITLE2=Candy Man Blues-John Hurt
TTITLE3=Jack O'Diamond-Blind Lemon Jefferson
TTITLE4=Hang Man's Blues-Blind Lemon Jefferson
TTITLE5=Low Down Mojo Blues-Blind Lemon Jefferson
TTITLE6=Midnight Special-Leadbelly
TTITLE7=Goodmorning Blues-Leadbelly
TTITLE8=Easy Rider-Leadbelly
TTITLE9=House of the Rising Sun-Woody Guthrie
TTITLE10=Mean Talking Blues-Woody Guthrie 
TTITLE11=Little Black Train-Woody Guthrie
EXTD=A Venom Contribution
EXTT0=
EXTT1=
EXTT2=
EXTT3=
EXTT4=
EXTT5=
EXTT6=
EXTT7=
EXTT8=
EXTT9=
EXTT10=
EXTT11=
PLAYORDER=
